<svg width="35" height="20" viewBox="0 0 35 20" fill="none" xmlns="http://www.w3.org/2000/svg">
<path d="M3.49599 1C3.49599 0.723858 3.71985 0.5 3.99599 0.5H34C34.2761 0.5 34.5 0.723857 34.5 1V19C34.5 19.2761 34.2761 19.5 34 19.5H3.99599C3.71985 19.5 3.49599 19.2761 3.49599 19V12.968C3.49599 12.5231 3.29856 12.1013 2.95702 11.8163L1.24047 10.3839C1.00093 10.184 1.00093 9.81598 1.24047 9.6161L2.95702 8.18373C3.29856 7.89873 3.49599 7.47685 3.49599 7.03203V1Z" stroke="#1ECAB8"/>
<path d="M12.9302 9.715C13.3202 9.799 13.6352 9.985 13.8752 10.273C14.1212 10.561 14.2442 10.9 14.2442 11.29C14.2442 11.806 14.0672 12.22 13.7132 12.532C13.3652 12.844 12.8582 13 12.1922 13H9.83425V6.655H12.1562C12.7922 6.655 13.2752 6.796 13.6052 7.078C13.9352 7.36 14.1002 7.747 14.1002 8.239C14.1002 8.647 13.9892 8.977 13.7672 9.229C13.5512 9.481 13.2722 9.643 12.9302 9.715ZM10.6532 9.436H12.0212C12.4232 9.436 12.7292 9.343 12.9392 9.157C13.1552 8.971 13.2632 8.71 13.2632 8.374C13.2632 8.05 13.1582 7.795 12.9482 7.609C12.7382 7.423 12.4172 7.33 11.9852 7.33H10.6532V9.436ZM12.0392 12.316C12.4712 12.316 12.8042 12.217 13.0382 12.019C13.2782 11.821 13.3982 11.542 13.3982 11.182C13.3982 10.828 13.2752 10.552 13.0292 10.354C12.7892 10.15 12.4532 10.048 12.0212 10.048H10.6532V12.316H12.0392ZM16.0849 7.321V9.49H18.4969V10.12H16.0849V12.334H18.7669V13H15.2659V6.655H18.7669V7.321H16.0849ZM23.7066 6.655V7.321H21.9156V13H21.0966V7.321H19.3056V6.655H23.7066ZM28.2378 11.533H25.4478L24.9168 13H24.0348L26.3838 6.772H27.3108L29.6508 13H28.7688L28.2378 11.533ZM28.0038 10.894L26.8428 7.69L25.6818 10.894H28.0038Z" fill="#1ECAB8"/>
</svg>
