<svg width="24" height="18" viewBox="0 0 24 18" fill="none" xmlns="http://www.w3.org/2000/svg">
<path d="M23.7131 5.13913L19.3044 0.469566C19.0957 0.260871 18.8348 0.130436 18.5478 0.130436H5.4522C5.16525 0.130436 4.87829 0.260871 4.69568 0.469566L0.286986 5.16522C-0.104318 5.58261 -0.0782311 6.2087 0.313073 6.62609L11.2696 17.5826C11.4783 17.7913 11.7392 17.8957 12 17.8957C12.2609 17.8957 12.5479 17.7913 12.7305 17.5826L23.687 6.62609C24.1044 6.2087 24.1044 5.55652 23.7131 5.13913ZM7.14785 6.65217L9.07829 12.287L3.44351 6.65217H7.14785ZM12.887 2.21739L14.5565 4.82609H9.44351L11.1131 2.21739H12.887ZM12 15.3391V15.287L9.07829 6.65217H14.9218L12 15.287V15.3391ZM16.8522 6.65217H20.5826L14.9218 12.287L16.8522 6.65217ZM20.6609 4.82609H16.6957L15.0261 2.21739H18.0783L20.6609 4.82609ZM5.89568 2.21739H8.94785L7.30438 4.82609H3.33916L5.89568 2.21739Z" fill="#4AC7EC"/>
</svg>
