<svg width="24" height="24" xmlns="http://www.w3.org/2000/svg">
 <g>
  <title>background</title>
  <rect x="-1" y="-1" width="3.5" height="3.5" id="canvas_background" fill="none"/>
 </g>

 <g>
  <title>Layer 1</title>
  <g stroke="null" id="svg_1" opacity="0.15">
   <circle stroke="null" cx="12" cy="12.0625" r="11.90625" fill="#506ee4" id="svg_2"/>
  </g>
  <g id="svg_3" stroke="null">
   <path stroke="null" d="m11.79105,4.25094c2.6699,0 5.29845,1.22962 5.29845,4.17074c0,2.71223 -3.10799,3.75529 -3.77547,4.73533c-0.5011,0.72901 -0.33374,1.75336 -1.71053,1.75336c-0.89686,0 -1.33495,-0.7295 -1.33495,-1.39698c0,-2.48383 3.64946,-3.04597 3.64946,-5.09122c0,-1.12575 -0.74919,-1.79322 -2.00145,-1.79322c-2.6699,0 -1.62734,2.75259 -3.64945,2.75259c-0.72999,0 -1.35661,-0.43809 -1.35661,-1.27194c-0.00049,-2.04574 2.33518,-3.85866 4.88054,-3.85866l0,0l0.00001,0zm-0.10387,12.01358c0.93723,0 1.71053,0.77084 1.71053,1.71102c0,0.94017 -0.77183,1.71102 -1.71053,1.71102c-0.9387,0 -1.71102,-0.76986 -1.71102,-1.71102c0,-0.93969 0.77232,-1.71102 1.71102,-1.71102z" id="svg_4" fill="#506ee4"/>
  </g>
  <g id="svg_5">
   <path d="m442.668,268.536l-16.116,-16.12c-5.06,-5.068 -11.824,-7.872 -19.024,-7.872c-7.208,0 -14.584,2.804 -19.644,7.872l-104.196,103.576l0,-329.068c0,-14.84 -10.832,-26.924 -25.668,-26.924l-22.804,0c-14.832,0 -28.404,12.084 -28.404,26.924l0,330.24l-103.988,-104.748c-5.068,-5.068 -11.444,-7.872 -18.652,-7.872c-7.2,0 -13.776,2.804 -18.84,7.872l-16.028,16.12c-10.488,10.492 -10.444,27.56 0.044,38.052l177.576,177.556c5.056,5.056 11.84,7.856 19.1,7.856l0.076,0c7.204,0 13.972,-2.8 19.028,-7.856l177.54,-177.552c10.496,-10.488 10.496,-27.564 0,-38.056z" id="svg_6"/>
  </g>
  <g id="svg_14" transform="matrix(0.12032814576955175,0,0,0.12032814576955175,0,0) " stroke="null"/>
  <g id="svg_15" transform="matrix(0.12032814576955175,0,0,0.12032814576955175,0,0) " stroke="null"/>
  <g id="svg_16" transform="matrix(0.12032814576955175,0,0,0.12032814576955175,0,0) " stroke="null"/>
  <g id="svg_17" transform="matrix(0.12032814576955175,0,0,0.12032814576955175,0,0) " stroke="null"/>
  <g id="svg_18" transform="matrix(0.12032814576955175,0,0,0.12032814576955175,0,0) " stroke="null"/>
  <g id="svg_19" transform="matrix(0.12032814576955175,0,0,0.12032814576955175,0,0) " stroke="null"/>
  <g id="svg_20" transform="matrix(0.12032814576955175,0,0,0.12032814576955175,0,0) " stroke="null"/>
  <g id="svg_21" transform="matrix(0.12032814576955175,0,0,0.12032814576955175,0,0) " stroke="null"/>
  <g id="svg_22" transform="matrix(0.12032814576955175,0,0,0.12032814576955175,0,0) " stroke="null"/>
  <g id="svg_23" transform="matrix(0.12032814576955175,0,0,0.12032814576955175,0,0) " stroke="null"/>
  <g id="svg_24" transform="matrix(0.12032814576955175,0,0,0.12032814576955175,0,0) " stroke="null"/>
  <g id="svg_25" transform="matrix(0.12032814576955175,0,0,0.12032814576955175,0,0) " stroke="null"/>
  <g id="svg_26" transform="matrix(0.12032814576955175,0,0,0.12032814576955175,0,0) " stroke="null"/>
  <g id="svg_27" transform="matrix(0.12032814576955175,0,0,0.12032814576955175,0,0) " stroke="null"/>
  <g id="svg_28" transform="matrix(0.12032814576955175,0,0,0.12032814576955175,0,0) " stroke="null"/>
  <g stroke="null" id="svg_44">
   <g stroke="null" transform="matrix(0.031013213687545494,0,0,0.031013213687545494,0.49237162361096054,14.014806849075494) " id="svg_11">
    <g stroke="null" id="svg_12">
     <path fill="#506ee4" stroke="null" id="svg_13" d="m567.68237,-125.578068l-177.544,-177.544c-5.064,-5.064 -11.82,-7.844 -19.168,-7.844c-7.204,0 -13.956,2.78 -19.02,7.844l-177.548,177.544c-10.488,10.492 -10.488,27.568 0,38.052l16.12,16.128c5.064,5.06 11.82,7.844 19.028,7.844c7.204,0 14.192,-2.784 19.252,-7.844l103.808,-103.584l0,329.084c0,14.832 11.616,26.932 26.448,26.932l22.8,0c14.832,0 27.624,-12.1 27.624,-26.932l0,-330.252l104.396,104.752c5.06,5.06 11.636,7.844 18.844,7.844s13.864,-2.784 18.932,-7.844l16.072,-16.128c10.492,-10.488 10.452,-27.56 -0.044,-38.052z"/>
    </g>
   </g>
   <g stroke="null" transform="matrix(0.031013213687545494,0,0,0.031013213687545494,0.49237162361096054,14.014806849075494) " id="svg_29"/>
   <g stroke="null" transform="matrix(0.031013213687545494,0,0,0.031013213687545494,0.49237162361096054,14.014806849075494) " id="svg_30"/>
   <g stroke="null" transform="matrix(0.031013213687545494,0,0,0.031013213687545494,0.49237162361096054,14.014806849075494) " id="svg_31"/>
   <g stroke="null" transform="matrix(0.031013213687545494,0,0,0.031013213687545494,0.49237162361096054,14.014806849075494) " id="svg_32"/>
   <g stroke="null" transform="matrix(0.031013213687545494,0,0,0.031013213687545494,0.49237162361096054,14.014806849075494) " id="svg_33"/>
   <g stroke="null" transform="matrix(0.031013213687545494,0,0,0.031013213687545494,0.49237162361096054,14.014806849075494) " id="svg_34"/>
   <g stroke="null" transform="matrix(0.031013213687545494,0,0,0.031013213687545494,0.49237162361096054,14.014806849075494) " id="svg_35"/>
   <g stroke="null" transform="matrix(0.031013213687545494,0,0,0.031013213687545494,0.49237162361096054,14.014806849075494) " id="svg_36"/>
   <g stroke="null" transform="matrix(0.031013213687545494,0,0,0.031013213687545494,0.49237162361096054,14.014806849075494) " id="svg_37"/>
   <g stroke="null" transform="matrix(0.031013213687545494,0,0,0.031013213687545494,0.49237162361096054,14.014806849075494) " id="svg_38"/>
   <g stroke="null" transform="matrix(0.031013213687545494,0,0,0.031013213687545494,0.49237162361096054,14.014806849075494) " id="svg_39"/>
   <g stroke="null" transform="matrix(0.031013213687545494,0,0,0.031013213687545494,0.49237162361096054,14.014806849075494) " id="svg_40"/>
   <g stroke="null" transform="matrix(0.031013213687545494,0,0,0.031013213687545494,0.49237162361096054,14.014806849075494) " id="svg_41"/>
   <g stroke="null" transform="matrix(0.031013213687545494,0,0,0.031013213687545494,0.49237162361096054,14.014806849075494) " id="svg_42"/>
   <g stroke="null" transform="matrix(0.031013213687545494,0,0,0.031013213687545494,0.49237162361096054,14.014806849075494) " id="svg_43"/>
  </g>
 </g>
</svg>