<svg xmlns="http://www.w3.org/2000/svg" width="16" height="16" viewBox="0 0 16 16">
    <path fill="#50649C" fill-rule="evenodd" d="M10.047 7.5l-.6.613c-.48.48-.78.887-.78 1.887H7.333v-.333c0-.74.3-1.407.78-1.887l.827-.84c.247-.24.393-.573.393-.94 0-.74-.6-1.333-1.333-1.333-.736 0-1.333.597-1.333 1.333H5.333c0-1.473 1.194-2.667 2.667-2.667 1.473 0 2.667 1.194 2.667 2.667 0 .587-.24 1.113-.62 1.5m-1.38 5.167H7.333v-1.334h1.334M8 1.333C4.318 1.333 1.333 4.318 1.333 8c0 1.768.703 3.464 1.953 4.714 1.25 1.25 2.946 1.953 4.714 1.953 1.768 0 3.464-.703 4.714-1.953 1.25-1.25 1.953-2.946 1.953-4.714 0-3.687-3-6.667-6.667-6.667z"/>
</svg>
