<svg width="16" height="16" viewBox="0 0 16 16" fill="none" xmlns="http://www.w3.org/2000/svg">
<path d="M15.0625 8.9375C15.0625 9.91667 14.875 10.8333 14.5 11.6875C14.125 12.5417 13.6146 13.2917 12.9688 13.9375C12.3438 14.5625 11.6042 15.0625 10.75 15.4375C9.89583 15.8125 8.97917 16 8 16C7.02083 16 6.10417 15.8125 5.25 15.4375C4.39583 15.0625 3.64583 14.5625 3 13.9375C2.375 13.2917 1.875 12.5417 1.5 11.6875C1.125 10.8333 0.9375 9.91667 0.9375 8.9375C0.9375 8.125 1.07292 7.34375 1.34375 6.59375C1.63542 5.82292 2.02083 5.13542 2.5 4.53125C3 3.90625 3.58333 3.38542 4.25 2.96875C4.9375 2.53125 5.67708 2.21875 6.46875 2.03125L6.6875 2.96875C6 3.11458 5.35417 3.375 4.75 3.75C4.16667 4.125 3.65625 4.58333 3.21875 5.125C2.80208 5.64583 2.46875 6.23958 2.21875 6.90625C1.98958 7.55208 1.875 8.22917 1.875 8.9375C1.875 9.79167 2.03125 10.5938 2.34375 11.3438C2.67708 12.0729 3.11458 12.7188 3.65625 13.2812C4.21875 13.8229 4.875 14.2604 5.625 14.5938C6.375 14.9062 7.16667 15.0625 8 15.0625C8.83333 15.0625 9.625 14.9062 10.375 14.5938C11.125 14.2604 11.7708 13.8229 12.3125 13.2812C12.875 12.7188 13.3125 12.0729 13.625 11.3438C13.9583 10.5938 14.125 9.79167 14.125 8.9375C14.125 8.22917 14 7.55208 13.75 6.90625C13.5208 6.23958 13.1875 5.64583 12.75 5.125C12.3333 4.58333 11.8333 4.125 11.25 3.75C10.6667 3.375 10.0208 3.11458 9.3125 2.96875L9.53125 2.0625C10.3229 2.22917 11.0521 2.53125 11.7188 2.96875C12.4062 3.38542 12.9896 3.90625 13.4688 4.53125C13.9688 5.13542 14.3542 5.82292 14.625 6.59375C14.9167 7.34375 15.0625 8.125 15.0625 8.9375ZM8.46875 0H7.53125V9.40625H8.46875V0Z" fill="#50649C" fill-opacity="0.8"/>
</svg>
