<svg width="24" height="24" viewBox="0 0 24 24" fill="none" xmlns="http://www.w3.org/2000/svg">
<path d="M20.4783 3.52174C18.2087 1.25217 15.2087 0 12 0C8.7913 0 5.7913 1.25217 3.52174 3.52174C1.25217 5.7913 0 8.7913 0 12C0 15.2087 1.25217 18.2087 3.52174 20.4783C5.7913 22.7478 8.7913 24 12 24C15.2087 24 18.2087 22.7478 20.4783 20.4783C22.7478 18.2087 24 15.2087 24 12C24 8.7913 22.7478 5.7913 20.4783 3.52174ZM18.1304 10.5391L21.7043 9.9913C21.8348 10.6435 21.913 11.3217 21.913 12C21.913 12.6783 21.8348 13.3565 21.7043 14.0087L18.1304 13.4609C18.3391 12.4957 18.3391 11.5043 18.1304 10.5391ZM21.2609 8.45217L17.5565 9.02609C17.2696 8.47826 16.9043 7.98261 16.4609 7.53913C16.0174 7.09565 15.4957 6.70435 14.9739 6.44348L15.5478 2.73913C16.8261 3.23478 18.0261 3.9913 19.0174 4.98261C20.0087 6 20.7652 7.17391 21.2609 8.45217ZM12 16.2261C10.8783 16.2261 9.80869 15.7826 9.02609 15C8.21739 14.1913 7.8 13.1478 7.8 12.0261C7.8 10.9043 8.24348 9.83478 9.02609 9.05217C9.86087 8.21739 10.9304 7.82609 12 7.82609C13.0696 7.82609 14.1652 8.24348 14.9739 9.05217C15.7826 9.86087 16.2 10.9043 16.2 12.0261C16.2 13.1478 15.7565 14.2174 14.9739 15C14.1913 15.7826 13.1217 16.2261 12 16.2261ZM12 2.08696C12.6783 2.08696 13.3565 2.16522 14.0087 2.29565L13.4609 5.86957C12.4957 5.63478 11.5043 5.63478 10.5391 5.86957L9.9913 2.29565C10.6435 2.16522 11.3217 2.08696 12 2.08696ZM4.98261 4.98261C5.97391 3.9913 7.17391 3.2087 8.45217 2.73913L9.02609 6.44348C8.47826 6.73043 7.98261 7.09565 7.53913 7.53913C7.09565 7.98261 6.73043 8.50435 6.41739 9.02609L2.71304 8.45217C3.23478 7.17391 3.9913 6 4.98261 4.98261ZM2.08696 12C2.08696 11.3217 2.16522 10.6435 2.29565 9.9913L5.86957 10.5391C5.76522 11.0087 5.68696 11.5043 5.68696 12C5.68696 12.4957 5.73913 12.9913 5.86957 13.4609L2.29565 14.0087C2.16522 13.3565 2.08696 12.6783 2.08696 12ZM2.73913 15.5478L6.44348 14.9739C6.73043 15.5217 7.09565 16.0174 7.56522 16.4609C8.0087 16.9043 8.53043 17.2696 9.05217 17.5826L8.47826 21.287C7.2 20.7913 6 20.0348 5.0087 19.0435C3.9913 18 3.23478 16.8261 2.73913 15.5478ZM12 21.913C11.3217 21.913 10.6435 21.8348 9.9913 21.7043L10.5391 18.1304C11.0087 18.2348 11.5043 18.313 12 18.313C12.4957 18.313 12.9913 18.2609 13.4609 18.1304L14.0087 21.7043C13.3565 21.8348 12.6783 21.913 12 21.913ZM19.0174 19.0174C18.0261 20.0087 16.8261 20.7913 15.5478 21.2609L14.9739 17.5565C15.5217 17.2696 16.0174 16.9043 16.4609 16.4348C16.9043 15.9913 17.2957 15.4696 17.5565 14.9478L21.2609 15.5217C20.7652 16.8261 20.0087 18 19.0174 19.0174Z" fill="#ED699F"/>
</svg>
