<svg width="75" height="12" viewBox="0 0 75 12" fill="none" xmlns="http://www.w3.org/2000/svg">
<path d="M5.705 11L2.945 6.68H1.46V11H0.0950001V0.424999H3.575C4.775 0.424999 5.675 0.714999 6.275 1.295C6.875 1.865 7.175 2.625 7.175 3.575C7.175 4.435 6.935 5.13 6.455 5.66C5.975 6.18 5.28 6.505 4.37 6.635L7.25 11H5.705ZM1.46 5.69H3.455C5.005 5.69 5.78 5.01 5.78 3.65C5.78 2.29 5.005 1.61 3.455 1.61H1.46V5.69ZM10.2051 1.535V5.15H14.2251V6.2H10.2051V9.89H14.6751V11H8.84012V0.424999H14.6751V1.535H10.2051ZM22.908 0.424999V1.535H19.923V11H18.558V1.535H15.573V0.424999H22.908ZM25.5549 0.424999V6.77C25.5549 7.81 25.7849 8.58 26.2449 9.08C26.7049 9.57 27.3399 9.815 28.1499 9.815C28.9499 9.815 29.5749 9.565 30.0249 9.065C30.4749 8.565 30.6999 7.8 30.6999 6.77V0.424999H32.0649V6.77C32.0649 8.21 31.7049 9.295 30.9849 10.025C30.2749 10.745 29.3199 11.105 28.1199 11.105C26.9299 11.105 25.9749 10.745 25.2549 10.025C24.5449 9.295 24.1899 8.21 24.1899 6.77V0.424999H25.5549ZM39.7919 11L37.0319 6.68H35.5469V11H34.1819V0.424999H37.6619C38.8619 0.424999 39.7619 0.714999 40.3619 1.295C40.9619 1.865 41.2619 2.625 41.2619 3.575C41.2619 4.435 41.0219 5.13 40.5419 5.66C40.0619 6.18 39.3669 6.505 38.4569 6.635L41.3369 11H39.7919ZM35.5469 5.69H37.5419C39.0919 5.69 39.8669 5.01 39.8669 3.65C39.8669 2.29 39.0919 1.61 37.5419 1.61H35.5469V5.69ZM51.147 11H49.782L44.292 2.645V11H42.927V0.424999H44.292L49.782 8.795V0.424999H51.147V11Z" fill="#2F3467"/>
<path d="M58.0971 0.289999C59.4271 0.289999 60.5221 0.614999 61.3821 1.265C62.2421 1.915 62.7771 2.795 62.9871 3.905H60.2721C60.0921 3.525 59.8171 3.225 59.4471 3.005C59.0771 2.775 58.6321 2.66 58.1121 2.66C57.3021 2.66 56.6521 2.935 56.1621 3.485C55.6721 4.025 55.4271 4.76 55.4271 5.69C55.4271 6.7 55.6821 7.475 56.1921 8.015C56.7121 8.555 57.4471 8.825 58.3971 8.825C59.0071 8.825 59.5421 8.66 60.0021 8.33C60.4621 7.99 60.7871 7.51 60.9771 6.89H57.7371V5.045H63.1221V7.58C62.9221 8.2 62.6021 8.775 62.1621 9.305C61.7221 9.835 61.1571 10.265 60.4671 10.595C59.7871 10.925 59.0071 11.09 58.1271 11.09C57.0571 11.09 56.1221 10.865 55.3221 10.415C54.5221 9.955 53.9021 9.315 53.4621 8.495C53.0321 7.675 52.8171 6.74 52.8171 5.69C52.8171 4.64 53.0321 3.705 53.4621 2.885C53.9021 2.065 54.5171 1.43 55.3071 0.979999C56.1071 0.519999 57.0371 0.289999 58.0971 0.289999ZM69.5979 0.229999C70.5979 0.229999 71.5029 0.464999 72.3129 0.935C73.1329 1.395 73.7779 2.04 74.2479 2.87C74.7179 3.69 74.9529 4.62 74.9529 5.66C74.9529 6.7 74.7129 7.635 74.2329 8.465C73.7629 9.295 73.1179 9.945 72.2979 10.415C71.4879 10.875 70.5879 11.105 69.5979 11.105C68.6079 11.105 67.7029 10.875 66.8829 10.415C66.0729 9.945 65.4279 9.295 64.9479 8.465C64.4779 7.635 64.2429 6.7 64.2429 5.66C64.2429 4.62 64.4779 3.69 64.9479 2.87C65.4279 2.04 66.0729 1.395 66.8829 0.935C67.7029 0.464999 68.6079 0.229999 69.5979 0.229999ZM69.5979 2.615C68.7579 2.615 68.0879 2.89 67.5879 3.44C67.0979 3.98 66.8529 4.72 66.8529 5.66C66.8529 6.59 67.0979 7.33 67.5879 7.88C68.0879 8.43 68.7579 8.705 69.5979 8.705C70.4279 8.705 71.0929 8.43 71.5929 7.88C72.0929 7.33 72.3429 6.59 72.3429 5.66C72.3429 4.73 72.0929 3.99 71.5929 3.44C71.1029 2.89 70.4379 2.615 69.5979 2.615Z" fill="#1ECAB8"/>
</svg>
