<svg width="16" height="17" viewBox="0 0 16 17" fill="none" xmlns="http://www.w3.org/2000/svg">
<path d="M8 6.625C7.66667 6.625 7.35417 6.6875 7.0625 6.8125C6.79167 6.9375 6.55208 7.10417 6.34375 7.3125C6.13542 7.52083 5.96875 7.77083 5.84375 8.0625C5.71875 8.35417 5.65625 8.65625 5.65625 8.96875C5.65625 9.30208 5.71875 9.61458 5.84375 9.90625C5.96875 10.1771 6.13542 10.4271 6.34375 10.6562C6.55208 10.8646 6.79167 11.0312 7.0625 11.1562C7.35417 11.2604 7.66667 11.3125 8 11.3125C8.33333 11.3125 8.63542 11.2604 8.90625 11.1562C9.19792 11.0312 9.44792 10.8646 9.65625 10.6562C9.86458 10.4271 10.0312 10.1771 10.1562 9.90625C10.2812 9.61458 10.3438 9.30208 10.3438 8.96875C10.3438 8.65625 10.2812 8.35417 10.1562 8.0625C10.0312 7.77083 9.86458 7.52083 9.65625 7.3125C9.44792 7.10417 9.19792 6.9375 8.90625 6.8125C8.63542 6.6875 8.33333 6.625 8 6.625ZM8 10.375C7.8125 10.375 7.625 10.3438 7.4375 10.2812C7.27083 10.1979 7.125 10.0938 7 9.96875C6.875 9.84375 6.77083 9.69792 6.6875 9.53125C6.625 9.34375 6.59375 9.15625 6.59375 8.96875C6.59375 8.78125 6.625 8.60417 6.6875 8.4375C6.77083 8.25 6.875 8.09375 7 7.96875C7.125 7.84375 7.27083 7.75 7.4375 7.6875C7.625 7.60417 7.8125 7.5625 8 7.5625C8.1875 7.5625 8.36458 7.60417 8.53125 7.6875C8.71875 7.75 8.875 7.84375 9 7.96875C9.125 8.09375 9.21875 8.25 9.28125 8.4375C9.36458 8.60417 9.40625 8.78125 9.40625 8.96875C9.40625 9.15625 9.36458 9.34375 9.28125 9.53125C9.21875 9.69792 9.125 9.84375 9 9.96875C8.875 10.0938 8.71875 10.1979 8.53125 10.2812C8.36458 10.3438 8.1875 10.375 8 10.375ZM15.9375 9.875C15.9583 9.8125 15.9688 9.75 15.9688 9.6875C15.9688 9.60417 15.9688 9.52083 15.9688 9.4375C15.9896 9.35417 16 9.28125 16 9.21875C16 9.13542 16 9.05208 16 8.96875C16 8.88542 16 8.8125 16 8.75C16 8.66667 15.9896 8.59375 15.9688 8.53125C15.9688 8.44792 15.9688 8.36458 15.9688 8.28125C15.9688 8.19792 15.9583 8.125 15.9375 8.0625L13.5 7.3125C13.4792 7.22917 13.4479 7.14583 13.4062 7.0625C13.3854 6.95833 13.3542 6.86458 13.3125 6.78125C13.2708 6.67708 13.2292 6.58333 13.1875 6.5C13.1458 6.41667 13.1042 6.33333 13.0625 6.25L14.25 4C14.1667 3.875 14.0729 3.76042 13.9688 3.65625C13.8646 3.53125 13.7604 3.41667 13.6562 3.3125C13.5521 3.20833 13.4375 3.10417 13.3125 3C13.2083 2.89583 13.0938 2.80208 12.9688 2.71875L10.7188 3.90625C10.6354 3.86458 10.5521 3.82292 10.4688 3.78125C10.3854 3.73958 10.2917 3.69792 10.1875 3.65625C10.1042 3.61458 10.0104 3.58333 9.90625 3.5625C9.82292 3.52083 9.73958 3.48958 9.65625 3.46875L8.90625 1.03125C8.84375 1.03125 8.77083 1.03125 8.6875 1.03125C8.60417 1.01042 8.52083 1 8.4375 1C8.375 0.979167 8.30208 0.96875 8.21875 0.96875C8.15625 0.96875 8.08333 0.96875 8 0.96875C7.91667 0.96875 7.83333 0.96875 7.75 0.96875C7.6875 0.96875 7.61458 0.979167 7.53125 1C7.46875 1 7.39583 1.01042 7.3125 1.03125C7.22917 1.03125 7.15625 1.03125 7.09375 1.03125L6.34375 3.46875C6.26042 3.48958 6.16667 3.52083 6.0625 3.5625C5.97917 3.58333 5.88542 3.61458 5.78125 3.65625C5.69792 3.69792 5.61458 3.73958 5.53125 3.78125C5.44792 3.82292 5.36458 3.86458 5.28125 3.90625L3.03125 2.71875C2.90625 2.80208 2.78125 2.89583 2.65625 3C2.55208 3.10417 2.44792 3.20833 2.34375 3.3125C2.23958 3.41667 2.13542 3.53125 2.03125 3.65625C1.92708 3.76042 1.83333 3.875 1.75 4L2.9375 6.25C2.89583 6.33333 2.85417 6.41667 2.8125 6.5C2.77083 6.58333 2.72917 6.67708 2.6875 6.78125C2.64583 6.86458 2.60417 6.95833 2.5625 7.0625C2.54167 7.14583 2.52083 7.22917 2.5 7.3125L0.0625 8.0625C0.0416667 8.125 0.03125 8.19792 0.03125 8.28125C0.03125 8.36458 0.0208333 8.44792 0 8.53125C0 8.59375 0 8.66667 0 8.75C0 8.8125 0 8.88542 0 8.96875C0 9.05208 0 9.13542 0 9.21875C0 9.28125 0 9.35417 0 9.4375C0.0208333 9.52083 0.03125 9.60417 0.03125 9.6875C0.03125 9.75 0.0416667 9.8125 0.0625 9.875L2.5 10.625C2.52083 10.7083 2.54167 10.8021 2.5625 10.9062C2.60417 10.9896 2.64583 11.0833 2.6875 11.1875C2.72917 11.2708 2.77083 11.3542 2.8125 11.4375C2.85417 11.5208 2.89583 11.6146 2.9375 11.7188L1.75 13.9375C1.83333 14.0625 1.92708 14.1875 2.03125 14.3125C2.13542 14.4167 2.23958 14.5208 2.34375 14.625C2.44792 14.7292 2.55208 14.8333 2.65625 14.9375C2.78125 15.0417 2.90625 15.1458 3.03125 15.25L5.28125 14.0312C5.36458 14.0729 5.44792 14.1146 5.53125 14.1562C5.61458 14.1979 5.69792 14.2396 5.78125 14.2812C5.88542 14.3229 5.97917 14.3646 6.0625 14.4062C6.16667 14.4271 6.26042 14.4479 6.34375 14.4688L7.09375 16.9062C7.15625 16.9271 7.22917 16.9375 7.3125 16.9375C7.39583 16.9375 7.46875 16.9375 7.53125 16.9375C7.61458 16.9583 7.6875 16.9688 7.75 16.9688C7.83333 16.9688 7.91667 16.9688 8 16.9688C8.08333 16.9688 8.15625 16.9688 8.21875 16.9688C8.30208 16.9688 8.375 16.9583 8.4375 16.9375C8.52083 16.9375 8.60417 16.9375 8.6875 16.9375C8.77083 16.9375 8.84375 16.9271 8.90625 16.9062L9.65625 14.4688C9.73958 14.4479 9.82292 14.4271 9.90625 14.4062C10.0104 14.3646 10.1042 14.3229 10.1875 14.2812C10.2917 14.2396 10.3854 14.1979 10.4688 14.1562C10.5521 14.1146 10.6354 14.0729 10.7188 14.0312L12.9688 15.25C13.0938 15.1458 13.2083 15.0417 13.3125 14.9375C13.4375 14.8333 13.5521 14.7292 13.6562 14.625C13.7604 14.5208 13.8646 14.4167 13.9688 14.3125C14.0729 14.1875 14.1667 14.0625 14.25 13.9375L13.0625 11.6875C13.1042 11.6042 13.1458 11.5208 13.1875 11.4375C13.2292 11.3542 13.2708 11.2708 13.3125 11.1875C13.3542 11.0833 13.3854 10.9896 13.4062 10.9062C13.4479 10.8021 13.4792 10.7083 13.5 10.625L15.9375 9.875ZM12.75 9.875L12.5938 10.3438C12.5729 10.4271 12.5521 10.5104 12.5312 10.5938C12.5104 10.6771 12.4792 10.7604 12.4375 10.8438C12.4167 10.9062 12.3854 10.9792 12.3438 11.0625C12.3021 11.125 12.2604 11.1875 12.2188 11.25L12 11.6875L12.2188 12.1562L13.125 13.8125C13.1042 13.8333 13.0833 13.8646 13.0625 13.9062C13.0417 13.9271 13.0104 13.9479 12.9688 13.9688C12.9479 13.9896 12.9271 14.0104 12.9062 14.0312C12.8854 14.0521 12.8646 14.0729 12.8438 14.0938L10.7188 12.9688L10.2812 13.2188C10.2188 13.2396 10.1458 13.2708 10.0625 13.3125C10 13.3542 9.92708 13.3958 9.84375 13.4375C9.76042 13.4583 9.67708 13.4792 9.59375 13.5C9.53125 13.5208 9.45833 13.5521 9.375 13.5938L8.90625 13.7188L8.75 14.2188L8.1875 16.0312C8.1875 16.0312 8.17708 16.0312 8.15625 16.0312C8.13542 16.0312 8.11458 16.0312 8.09375 16.0312C8.07292 16.0312 8.05208 16.0312 8.03125 16.0312C8.03125 16.0312 8.02083 16.0312 8 16.0312C7.97917 16.0312 7.95833 16.0312 7.9375 16.0312C7.9375 16.0312 7.92708 16.0312 7.90625 16.0312C7.88542 16.0312 7.86458 16.0312 7.84375 16.0312C7.82292 16.0312 7.8125 16.0312 7.8125 16.0312L7.25 14.2188L7.09375 13.7188L6.625 13.5938C6.54167 13.5521 6.45833 13.5208 6.375 13.5C6.3125 13.4792 6.23958 13.4583 6.15625 13.4375C6.07292 13.3958 5.98958 13.3542 5.90625 13.3125C5.84375 13.2708 5.78125 13.2396 5.71875 13.2188L5.28125 12.9688L3.15625 14.0938C3.13542 14.0729 3.11458 14.0521 3.09375 14.0312C3.07292 14.0104 3.04167 13.9896 3 13.9688C2.97917 13.9479 2.95833 13.9271 2.9375 13.9062C2.91667 13.8646 2.89583 13.8333 2.875 13.8125L4 11.6875L3.78125 11.25C3.73958 11.1875 3.69792 11.125 3.65625 11.0625C3.61458 10.9792 3.57292 10.8958 3.53125 10.8125C3.51042 10.7292 3.48958 10.6562 3.46875 10.5938C3.44792 10.5104 3.42708 10.4271 3.40625 10.3438L3.25 9.875L0.9375 9.1875C0.9375 9.16667 0.9375 9.14583 0.9375 9.125C0.9375 9.10417 0.9375 9.09375 0.9375 9.09375C0.9375 9.07292 0.9375 9.05208 0.9375 9.03125C0.9375 9.01042 0.9375 8.98958 0.9375 8.96875C0.9375 8.94792 0.9375 8.9375 0.9375 8.9375C0.9375 8.91667 0.9375 8.89583 0.9375 8.875C0.9375 8.85417 0.9375 8.84375 0.9375 8.84375C0.9375 8.82292 0.9375 8.80208 0.9375 8.78125L3.25 8.09375L3.40625 7.59375C3.42708 7.51042 3.44792 7.4375 3.46875 7.375C3.48958 7.29167 3.51042 7.21875 3.53125 7.15625C3.57292 7.07292 3.61458 7 3.65625 6.9375C3.69792 6.85417 3.73958 6.77083 3.78125 6.6875L4 6.25L2.875 4.125C2.89583 4.10417 2.91667 4.08333 2.9375 4.0625C2.95833 4.04167 2.97917 4.02083 3 4C3.04167 3.95833 3.07292 3.92708 3.09375 3.90625C3.11458 3.88542 3.13542 3.86458 3.15625 3.84375L5.28125 4.96875L5.71875 4.75C5.78125 4.70833 5.84375 4.66667 5.90625 4.625C5.98958 4.58333 6.07292 4.55208 6.15625 4.53125C6.23958 4.51042 6.3125 4.48958 6.375 4.46875C6.45833 4.42708 6.54167 4.39583 6.625 4.375L7.09375 4.21875L7.25 3.75L7.8125 1.90625C7.8125 1.90625 7.82292 1.90625 7.84375 1.90625C7.86458 1.90625 7.88542 1.90625 7.90625 1.90625C7.92708 1.90625 7.9375 1.90625 7.9375 1.90625C7.95833 1.90625 7.97917 1.90625 8 1.90625C8.02083 1.90625 8.03125 1.90625 8.03125 1.90625C8.05208 1.90625 8.07292 1.90625 8.09375 1.90625C8.11458 1.90625 8.13542 1.90625 8.15625 1.90625C8.17708 1.90625 8.1875 1.90625 8.1875 1.90625L8.75 3.75L8.90625 4.21875L9.375 4.375C9.45833 4.39583 9.53125 4.42708 9.59375 4.46875C9.67708 4.48958 9.76042 4.52083 9.84375 4.5625C9.92708 4.58333 10 4.61458 10.0625 4.65625C10.1458 4.67708 10.2188 4.70833 10.2812 4.75L10.7188 4.96875L12.8438 3.84375C12.8646 3.86458 12.8854 3.88542 12.9062 3.90625C12.9271 3.92708 12.9479 3.95833 12.9688 4C13.0104 4.02083 13.0417 4.04167 13.0625 4.0625C13.0833 4.08333 13.1042 4.10417 13.125 4.125L12.2188 5.8125L12 6.25L12.2188 6.6875C12.2604 6.77083 12.3021 6.85417 12.3438 6.9375C12.3854 7 12.4167 7.07292 12.4375 7.15625C12.4792 7.21875 12.5104 7.29167 12.5312 7.375C12.5521 7.4375 12.5729 7.51042 12.5938 7.59375L12.75 8.09375L13.25 8.21875L15.0625 8.78125C15.0625 8.80208 15.0625 8.82292 15.0625 8.84375C15.0625 8.84375 15.0625 8.85417 15.0625 8.875C15.0625 8.89583 15.0625 8.91667 15.0625 8.9375C15.0625 8.9375 15.0625 8.94792 15.0625 8.96875C15.0625 8.98958 15.0625 9.01042 15.0625 9.03125C15.0625 9.05208 15.0625 9.07292 15.0625 9.09375C15.0625 9.09375 15.0625 9.10417 15.0625 9.125C15.0625 9.14583 15.0625 9.16667 15.0625 9.1875L12.75 9.875Z" fill="#50649C" fill-opacity="0.8"/>
</svg>
